<svg xmlns="http://www.w3.org/2000/svg" xmlns:xlink="http://www.w3.org/1999/xlink" width="500" zoomAndPan="magnify" viewBox="0 0 375 374.999991" height="500" preserveAspectRatio="xMidYMid meet" version="1.2"><defs><clipPath id="d20f6f08c8"><path d="M 67.765625 148.242188 L 354.957031 148.242188 L 354.957031 273.492188 L 67.765625 273.492188 Z M 67.765625 148.242188 "/></clipPath><clipPath id="f8e813bfd1"><path d="M 80.515625 148.242188 L 341.730469 148.242188 C 348.769531 148.242188 354.480469 153.949219 354.480469 160.992188 L 354.480469 260.742188 C 354.480469 267.785156 348.769531 273.492188 341.730469 273.492188 L 80.515625 273.492188 C 73.472656 273.492188 67.765625 267.785156 67.765625 260.742188 L 67.765625 160.992188 C 67.765625 153.949219 73.472656 148.242188 80.515625 148.242188 Z M 80.515625 148.242188 "/></clipPath><clipPath id="225c8d5671"><path d="M 136 207 L 223 207 L 223 309 L 136 309 Z M 136 207 "/></clipPath><clipPath id="976ecafc9f"><path d="M 257.625 285.570312 L 184.28125 331.085938 L 134.210938 250.40625 L 207.558594 204.890625 Z M 257.625 285.570312 "/></clipPath><clipPath id="2ec0002d8c"><path d="M 216.492188 308.238281 L 139.300781 256.960938 C 137.664062 255.871094 136.691406 254.023438 136.71875 252.058594 C 136.75 250.089844 137.78125 248.273438 139.453125 247.234375 L 202.394531 208.175781 C 204.066406 207.140625 206.152344 207.023438 207.925781 207.871094 C 209.703125 208.714844 210.925781 210.40625 211.175781 212.359375 L 222.851562 304.289062 C 223.054688 305.886719 222.308594 307.457031 220.941406 308.304688 C 219.570312 309.15625 217.832031 309.128906 216.492188 308.238281 Z M 216.492188 308.238281 "/></clipPath><clipPath id="9c79690d85"><path d="M 8 87 L 91 87 L 91 184 L 8 184 Z M 8 87 "/></clipPath><clipPath id="4ab2b3b17e"><path d="M 96.679688 174.285156 L 9.433594 183.679688 L 0.0390625 96.433594 L 87.285156 87.039062 Z M 96.679688 174.285156 "/></clipPath><clipPath id="c0235c117c"><path d="M 96.679688 174.285156 L 9.433594 183.679688 L 0.0390625 96.433594 L 87.285156 87.039062 Z M 96.679688 174.285156 "/></clipPath><clipPath id="dfdab8f05b"><path d="M 41 117 L 96 117 L 96 180 L 41 180 Z M 41 117 "/></clipPath><clipPath id="3be8f618e3"><path d="M 99.03125 174.480469 L 41.492188 179.410156 L 36.5625 121.871094 L 94.101562 116.941406 Z M 99.03125 174.480469 "/></clipPath><clipPath id="c5fc20975b"><path d="M 99.03125 174.480469 L 41.492188 179.410156 L 36.5625 121.871094 L 94.101562 116.941406 Z M 99.03125 174.480469 "/></clipPath></defs><g id="fd35dc39bb"><g clip-rule="nonzero" clip-path="url(#d20f6f08c8)"><g clip-rule="nonzero" clip-path="url(#f8e813bfd1)"><path style=" stroke:none;fill-rule:nonzero;fill:#271f81;fill-opacity:1;" d="M 67.765625 148.242188 L 354.46875 148.242188 L 354.46875 273.492188 L 67.765625 273.492188 Z M 67.765625 148.242188 "/></g></g><g clip-rule="nonzero" clip-path="url(#225c8d5671)"><g clip-rule="nonzero" clip-path="url(#976ecafc9f)"><g clip-rule="nonzero" clip-path="url(#2ec0002d8c)"><path style=" stroke:none;fill-rule:nonzero;fill:#271f81;fill-opacity:1;" d="M 263.105469 288.941406 L 184.867188 337.492188 L 131.769531 251.921875 L 210.003906 203.371094 Z M 263.105469 288.941406 "/></g></g></g><g clip-rule="nonzero" clip-path="url(#9c79690d85)"><g clip-rule="nonzero" clip-path="url(#4ab2b3b17e)"><g clip-rule="nonzero" clip-path="url(#c0235c117c)"><path style=" stroke:none;fill-rule:nonzero;fill:#271f81;fill-opacity:1;" d="M 35.519531 180.871094 C 31.886719 147.121094 56.34375 116.757812 90.09375 113.125 L 87.285156 87.039062 C 39.09375 92.230469 4.246094 135.488281 9.433594 183.679688 Z M 35.519531 180.871094 "/></g></g></g><g clip-rule="nonzero" clip-path="url(#dfdab8f05b)"><g clip-rule="nonzero" clip-path="url(#3be8f618e3)"><g clip-rule="nonzero" clip-path="url(#c5fc20975b)"><path style=" stroke:none;fill-rule:nonzero;fill:#271f81;fill-opacity:1;" d="M 58.835938 177.925781 C 56.933594 155.746094 73.40625 136.1875 95.585938 134.285156 L 94.117188 117.140625 C 62.445312 119.855469 38.976562 147.722656 41.691406 179.394531 Z M 58.835938 177.925781 "/></g></g></g><g style="fill:#fcf9f2;fill-opacity:1;"><g transform="translate(81.327597, 240.979491)"><path style="stroke:none" d="M 58.90625 0 L 42.890625 0 L 18.8125 -44.40625 C 19.09375 -39.09375 19.234375 -33.101562 19.234375 -26.4375 L 19.234375 0 L 7.546875 0 L 7.546875 -58.484375 L 23.046875 -58.484375 L 47.625 -13.21875 C 47.34375 -18.476562 47.203125 -24.609375 47.203125 -31.609375 L 47.203125 -58.484375 L 58.8125 -58.484375 Z M 58.90625 0 "/></g></g><g style="fill:#fcf9f2;fill-opacity:1;"><g transform="translate(140.141197, 240.979491)"><path style="stroke:none" d="M 46.28125 -23.46875 C 46.28125 -21.832031 46.222656 -20.507812 46.109375 -19.5 L 14.0625 -19.5 C 14.738281 -11.1875 18.21875 -7.03125 24.5 -7.03125 C 27.039062 -7.03125 29.144531 -7.707031 30.8125 -9.0625 C 32.476562 -10.425781 33.507812 -12.289062 33.90625 -14.65625 L 45.59375 -14.65625 C 44.46875 -9.519531 41.992188 -5.59375 38.171875 -2.875 C 34.359375 -0.164062 29.710938 1.1875 24.234375 1.1875 C 17.742188 1.1875 12.460938 -0.832031 8.390625 -4.875 C 4.316406 -8.914062 2.28125 -14.75 2.28125 -22.375 C 2.28125 -29.382812 4.382812 -35.117188 8.59375 -39.578125 C 12.8125 -44.046875 18.335938 -46.28125 25.171875 -46.28125 C 31.785156 -46.28125 36.957031 -44.101562 40.6875 -39.75 C 44.414062 -35.394531 46.28125 -29.96875 46.28125 -23.46875 Z M 24.65625 -38.046875 C 18.84375 -38.046875 15.425781 -34.40625 14.40625 -27.125 L 34.234375 -27.125 C 33.441406 -34.40625 30.25 -38.046875 24.65625 -38.046875 Z M 24.65625 -38.046875 "/></g></g><g style="fill:#fcf9f2;fill-opacity:1;"><g transform="translate(183.530761, 240.979491)"><path style="stroke:none" d="M 24.828125 -46.28125 C 30.765625 -46.28125 35.566406 -44.65625 39.234375 -41.40625 C 42.910156 -38.15625 44.972656 -33.957031 45.421875 -28.8125 L 33.90625 -28.8125 C 32.882812 -34.96875 29.773438 -38.046875 24.578125 -38.046875 C 21.472656 -38.046875 19 -36.773438 17.15625 -34.234375 C 15.320312 -31.691406 14.40625 -27.9375 14.40625 -22.96875 C 14.40625 -17.601562 15.304688 -13.601562 17.109375 -10.96875 C 18.921875 -8.34375 21.382812 -7.03125 24.5 -7.03125 C 26.8125 -7.03125 28.769531 -7.765625 30.375 -9.234375 C 31.988281 -10.703125 33.078125 -12.820312 33.640625 -15.59375 L 45.34375 -15.59375 C 44.382812 -10.164062 41.992188 -6.007812 38.171875 -3.125 C 34.359375 -0.25 29.570312 1.1875 23.8125 1.1875 C 17.425781 1.1875 12.238281 -0.832031 8.25 -4.875 C 4.269531 -8.914062 2.28125 -14.691406 2.28125 -22.203125 C 2.28125 -29.660156 4.425781 -35.535156 8.71875 -39.828125 C 13.019531 -44.128906 18.390625 -46.28125 24.828125 -46.28125 Z M 24.828125 -46.28125 "/></g></g><g style="fill:#fcf9f2;fill-opacity:1;"><g transform="translate(225.479613, 240.979491)"><path style="stroke:none" d="M 47.375 -33.640625 C 47.601562 -31.609375 47.71875 -28.867188 47.71875 -25.421875 L 47.71875 0 L 36.015625 0 L 36.015625 -23.8125 C 36.015625 -26.46875 35.957031 -28.5625 35.84375 -30.09375 C 35.445312 -35.394531 32.566406 -38.046875 27.203125 -38.046875 C 24.148438 -37.992188 21.691406 -36.554688 19.828125 -33.734375 C 17.960938 -30.910156 17.03125 -26.53125 17.03125 -20.59375 L 17.03125 0 L 5.34375 0 L 5.34375 -62.71875 L 17.03125 -62.71875 L 17.03125 -37.796875 L 20.515625 -43.140625 C 23.453125 -45.234375 27.066406 -46.28125 31.359375 -46.28125 C 36.097656 -46.28125 39.835938 -45.175781 42.578125 -42.96875 C 45.328125 -40.757812 46.925781 -37.648438 47.375 -33.640625 Z M 47.375 -33.640625 "/></g></g><g style="fill:#fcf9f2;fill-opacity:1;"><g transform="translate(280.653209, 244.098044)"><path style="stroke:none" d="M 30.046875 0.75 C 25.585938 0.75 21.566406 -0.0351562 17.984375 -1.609375 C 14.410156 -3.179688 11.359375 -5.3125 8.828125 -8 C 6.296875 -10.695312 4.351562 -13.820312 3 -17.375 C 1.65625 -20.925781 0.984375 -24.679688 0.984375 -28.640625 C 0.984375 -34.140625 2.125 -39.144531 4.40625 -43.65625 C 6.695312 -48.164062 10.015625 -51.753906 14.359375 -54.421875 C 18.703125 -57.097656 23.929688 -58.4375 30.046875 -58.4375 C 34.609375 -58.4375 38.675781 -57.648438 42.25 -56.078125 C 45.832031 -54.515625 48.875 -52.351562 51.375 -49.59375 C 53.875 -46.84375 55.769531 -43.679688 57.0625 -40.109375 C 58.363281 -36.535156 59.015625 -32.710938 59.015625 -28.640625 C 59.015625 -24.679688 58.335938 -20.925781 56.984375 -17.375 C 55.640625 -13.820312 53.710938 -10.695312 51.203125 -8 C 48.703125 -5.3125 45.660156 -3.179688 42.078125 -1.609375 C 38.503906 -0.0351562 34.492188 0.75 30.046875 0.75 Z M 30.046875 -9 C 33.734375 -9 36.878906 -9.90625 39.484375 -11.71875 C 42.097656 -13.53125 44.117188 -15.9375 45.546875 -18.9375 C 46.984375 -21.9375 47.703125 -25.171875 47.703125 -28.640625 C 47.703125 -32.265625 46.984375 -35.601562 45.546875 -38.65625 C 44.117188 -41.71875 42.097656 -44.179688 39.484375 -46.046875 C 36.878906 -47.921875 33.734375 -48.859375 30.046875 -48.859375 C 26.359375 -48.859375 23.191406 -47.921875 20.546875 -46.046875 C 17.910156 -44.179688 15.890625 -41.71875 14.484375 -38.65625 C 13.078125 -35.601562 12.375 -32.265625 12.375 -28.640625 C 12.375 -25.171875 13.078125 -21.9375 14.484375 -18.9375 C 15.890625 -15.9375 17.910156 -13.53125 20.546875 -11.71875 C 23.191406 -9.90625 26.359375 -9 30.046875 -9 Z M 30.046875 -9 "/></g></g><g style="fill:#fcf9f2;fill-opacity:1;"><g transform="translate(297.371349, 222.475545)"><path style="stroke:none" d="M 2.015625 -4.25 C 2.515625 -4.757812 3.164062 -5.015625 3.96875 -5.015625 C 4.769531 -5.015625 5.425781 -4.757812 5.9375 -4.25 C 6.445312 -3.738281 6.703125 -3.082031 6.703125 -2.28125 C 6.703125 -1.476562 6.445312 -0.820312 5.9375 -0.3125 C 5.425781 0.195312 4.769531 0.453125 3.96875 0.453125 C 3.164062 0.453125 2.515625 0.195312 2.015625 -0.3125 C 1.515625 -0.820312 1.265625 -1.476562 1.265625 -2.28125 C 1.265625 -3.082031 1.515625 -3.738281 2.015625 -4.25 Z M 2.015625 -4.25 "/></g></g><g style="fill:#fcf9f2;fill-opacity:1;"><g transform="translate(303.196519, 222.475545)"><path style="stroke:none" d="M 2.015625 -4.25 C 2.515625 -4.757812 3.164062 -5.015625 3.96875 -5.015625 C 4.769531 -5.015625 5.425781 -4.757812 5.9375 -4.25 C 6.445312 -3.738281 6.703125 -3.082031 6.703125 -2.28125 C 6.703125 -1.476562 6.445312 -0.820312 5.9375 -0.3125 C 5.425781 0.195312 4.769531 0.453125 3.96875 0.453125 C 3.164062 0.453125 2.515625 0.195312 2.015625 -0.3125 C 1.515625 -0.820312 1.265625 -1.476562 1.265625 -2.28125 C 1.265625 -3.082031 1.515625 -3.738281 2.015625 -4.25 Z M 2.015625 -4.25 "/></g></g><g style="fill:#fcf9f2;fill-opacity:1;"><g transform="translate(309.021689, 222.475545)"><path style="stroke:none" d="M 2.015625 -4.25 C 2.515625 -4.757812 3.164062 -5.015625 3.96875 -5.015625 C 4.769531 -5.015625 5.425781 -4.757812 5.9375 -4.25 C 6.445312 -3.738281 6.703125 -3.082031 6.703125 -2.28125 C 6.703125 -1.476562 6.445312 -0.820312 5.9375 -0.3125 C 5.425781 0.195312 4.769531 0.453125 3.96875 0.453125 C 3.164062 0.453125 2.515625 0.195312 2.015625 -0.3125 C 1.515625 -0.820312 1.265625 -1.476562 1.265625 -2.28125 C 1.265625 -3.082031 1.515625 -3.738281 2.015625 -4.25 Z M 2.015625 -4.25 "/></g></g><g style="fill:#fcf9f2;fill-opacity:1;"><g transform="translate(314.846859, 222.475545)"><path style="stroke:none" d="M 2.015625 -4.25 C 2.515625 -4.757812 3.164062 -5.015625 3.96875 -5.015625 C 4.769531 -5.015625 5.425781 -4.757812 5.9375 -4.25 C 6.445312 -3.738281 6.703125 -3.082031 6.703125 -2.28125 C 6.703125 -1.476562 6.445312 -0.820312 5.9375 -0.3125 C 5.425781 0.195312 4.769531 0.453125 3.96875 0.453125 C 3.164062 0.453125 2.515625 0.195312 2.015625 -0.3125 C 1.515625 -0.820312 1.265625 -1.476562 1.265625 -2.28125 C 1.265625 -3.082031 1.515625 -3.738281 2.015625 -4.25 Z M 2.015625 -4.25 "/></g></g><g style="fill:#271f81;fill-opacity:1;"><g transform="translate(105.715742, 127.762345)"><path style="stroke:none" d="M 5.5625 -14.28125 L 5.5625 -9.8125 L 13.296875 -9.8125 L 13.296875 -7.140625 L 5.5625 -7.140625 L 5.5625 0 L 2.1875 0 L 2.1875 -16.921875 L 14.15625 -16.921875 L 14.15625 -14.28125 Z M 5.5625 -14.28125 "/></g></g><g style="fill:#271f81;fill-opacity:1;"><g transform="translate(118.63655, 127.762345)"><path style="stroke:none" d="M 13.390625 -6.796875 C 13.390625 -6.316406 13.375 -5.929688 13.34375 -5.640625 L 4.078125 -5.640625 C 4.265625 -3.234375 5.269531 -2.03125 7.09375 -2.03125 C 7.820312 -2.03125 8.425781 -2.226562 8.90625 -2.625 C 9.394531 -3.019531 9.695312 -3.5625 9.8125 -4.25 L 13.203125 -4.25 C 12.867188 -2.757812 12.148438 -1.617188 11.046875 -0.828125 C 9.941406 -0.046875 8.597656 0.34375 7.015625 0.34375 C 5.128906 0.34375 3.597656 -0.238281 2.421875 -1.40625 C 1.242188 -2.582031 0.65625 -4.269531 0.65625 -6.46875 C 0.65625 -8.5 1.265625 -10.160156 2.484375 -11.453125 C 3.703125 -12.742188 5.300781 -13.390625 7.28125 -13.390625 C 9.195312 -13.390625 10.691406 -12.757812 11.765625 -11.5 C 12.847656 -10.238281 13.390625 -8.671875 13.390625 -6.796875 Z M 7.140625 -11.015625 C 5.453125 -11.015625 4.460938 -9.957031 4.171875 -7.84375 L 9.90625 -7.84375 C 9.675781 -9.957031 8.753906 -11.015625 7.140625 -11.015625 Z M 7.140625 -11.015625 "/></g></g><g style="fill:#271f81;fill-opacity:1;"><g transform="translate(131.189554, 127.762345)"><path style="stroke:none" d="M 13.390625 -6.796875 C 13.390625 -6.316406 13.375 -5.929688 13.34375 -5.640625 L 4.078125 -5.640625 C 4.265625 -3.234375 5.269531 -2.03125 7.09375 -2.03125 C 7.820312 -2.03125 8.425781 -2.226562 8.90625 -2.625 C 9.394531 -3.019531 9.695312 -3.5625 9.8125 -4.25 L 13.203125 -4.25 C 12.867188 -2.757812 12.148438 -1.617188 11.046875 -0.828125 C 9.941406 -0.046875 8.597656 0.34375 7.015625 0.34375 C 5.128906 0.34375 3.597656 -0.238281 2.421875 -1.40625 C 1.242188 -2.582031 0.65625 -4.269531 0.65625 -6.46875 C 0.65625 -8.5 1.265625 -10.160156 2.484375 -11.453125 C 3.703125 -12.742188 5.300781 -13.390625 7.28125 -13.390625 C 9.195312 -13.390625 10.691406 -12.757812 11.765625 -11.5 C 12.847656 -10.238281 13.390625 -8.671875 13.390625 -6.796875 Z M 7.140625 -11.015625 C 5.453125 -11.015625 4.460938 -9.957031 4.171875 -7.84375 L 9.90625 -7.84375 C 9.675781 -9.957031 8.753906 -11.015625 7.140625 -11.015625 Z M 7.140625 -11.015625 "/></g></g><g style="fill:#271f81;fill-opacity:1;"><g transform="translate(143.742558, 127.762345)"><path style="stroke:none" d="M 4.828125 -18.03125 L 4.828125 -4.265625 C 4.828125 -3.691406 4.835938 -3.289062 4.859375 -3.0625 C 4.890625 -2.71875 5.007812 -2.488281 5.21875 -2.375 C 5.4375 -2.257812 5.820312 -2.21875 6.375 -2.25 L 6.375 0.078125 C 5.789062 0.140625 5.097656 0.171875 4.296875 0.171875 C 2.492188 0.171875 1.5625 -0.597656 1.5 -2.140625 C 1.46875 -2.523438 1.453125 -3.207031 1.453125 -4.1875 L 1.453125 -18.03125 Z M 4.828125 -18.03125 "/></g></g><g style="fill:#271f81;fill-opacity:1;"><g transform="translate(148.964137, 127.762345)"><path style="stroke:none" d="M 1.515625 -3.203125 C 1.890625 -3.585938 2.378906 -3.78125 2.984375 -3.78125 C 3.597656 -3.78125 4.09375 -3.585938 4.46875 -3.203125 C 4.851562 -2.816406 5.046875 -2.320312 5.046875 -1.71875 C 5.046875 -1.113281 4.851562 -0.617188 4.46875 -0.234375 C 4.09375 0.148438 3.597656 0.34375 2.984375 0.34375 C 2.378906 0.34375 1.890625 0.148438 1.515625 -0.234375 C 1.140625 -0.617188 0.953125 -1.113281 0.953125 -1.71875 C 0.953125 -2.320312 1.140625 -2.816406 1.515625 -3.203125 Z M 1.515625 -3.203125 "/></g></g><g style="fill:#271f81;fill-opacity:1;"><g transform="translate(153.352031, 127.762345)"><path style="stroke:none" d=""/></g></g><g style="fill:#271f81;fill-opacity:1;"><g transform="translate(156.48942, 127.762345)"><path style="stroke:none" d="M 7.796875 -17.265625 C 9.734375 -17.265625 11.210938 -16.78125 12.234375 -15.8125 C 13.253906 -14.851562 13.863281 -13.566406 14.0625 -11.953125 L 10.59375 -11.953125 C 10.5 -12.828125 10.207031 -13.507812 9.71875 -14 C 9.226562 -14.5 8.546875 -14.75 7.671875 -14.75 C 6.972656 -14.75 6.398438 -14.578125 5.953125 -14.234375 C 5.515625 -13.890625 5.296875 -13.390625 5.296875 -12.734375 C 5.296875 -12.015625 5.5625 -11.445312 6.09375 -11.03125 C 6.625 -10.625 7.5625 -10.265625 8.90625 -9.953125 C 10.75 -9.535156 12.109375 -8.890625 12.984375 -8.015625 C 13.859375 -7.148438 14.296875 -6.03125 14.296875 -4.65625 C 14.296875 -3.125 13.691406 -1.90625 12.484375 -1 C 11.273438 -0.101562 9.796875 0.34375 8.046875 0.34375 C 5.984375 0.34375 4.335938 -0.109375 3.109375 -1.015625 C 1.890625 -1.921875 1.195312 -3.25 1.03125 -5 L 4.484375 -5 C 4.671875 -4.101562 5.082031 -3.410156 5.71875 -2.921875 C 6.351562 -2.429688 7.113281 -2.1875 8 -2.1875 C 8.78125 -2.1875 9.4375 -2.378906 9.96875 -2.765625 C 10.5 -3.160156 10.765625 -3.675781 10.765625 -4.3125 C 10.765625 -5.03125 10.503906 -5.609375 9.984375 -6.046875 C 9.472656 -6.492188 8.609375 -6.863281 7.390625 -7.15625 C 5.484375 -7.613281 4.0625 -8.222656 3.125 -8.984375 C 2.195312 -9.742188 1.734375 -10.851562 1.734375 -12.3125 C 1.734375 -13.820312 2.320312 -15.023438 3.5 -15.921875 C 4.6875 -16.816406 6.117188 -17.265625 7.796875 -17.265625 Z M 7.796875 -17.265625 "/></g></g><g style="fill:#271f81;fill-opacity:1;"><g transform="translate(169.778032, 127.762345)"><path style="stroke:none" d="M 13.71875 -9.734375 C 13.78125 -9.148438 13.8125 -8.359375 13.8125 -7.359375 L 13.8125 0 L 10.421875 0 L 10.421875 -6.890625 C 10.421875 -7.660156 10.40625 -8.265625 10.375 -8.703125 C 10.257812 -10.242188 9.425781 -11.015625 7.875 -11.015625 C 6.988281 -10.992188 6.273438 -10.570312 5.734375 -9.75 C 5.203125 -8.9375 4.9375 -7.675781 4.9375 -5.96875 L 4.9375 0 L 1.546875 0 L 1.546875 -18.15625 L 4.9375 -18.15625 L 4.9375 -10.9375 L 5.9375 -12.484375 C 6.789062 -13.085938 7.835938 -13.390625 9.078125 -13.390625 C 10.453125 -13.390625 11.535156 -13.070312 12.328125 -12.4375 C 13.117188 -11.800781 13.582031 -10.898438 13.71875 -9.734375 Z M 13.71875 -9.734375 "/></g></g><g style="fill:#271f81;fill-opacity:1;"><g transform="translate(183.385384, 127.762345)"><path style="stroke:none" d="M 9.125 0 L 8.875 -1.90625 L 8.25 -0.515625 C 7.394531 0.0546875 6.3125 0.34375 5 0.34375 C 3.8125 0.34375 2.816406 0.0078125 2.015625 -0.65625 C 1.210938 -1.332031 0.8125 -2.265625 0.8125 -3.453125 C 0.8125 -4.898438 1.421875 -6.007812 2.640625 -6.78125 C 3.859375 -7.5625 5.644531 -7.953125 8 -7.953125 L 8.828125 -7.953125 L 8.828125 -8.21875 C 8.828125 -8.738281 8.8125 -9.144531 8.78125 -9.4375 C 8.664062 -10.488281 7.992188 -11.015625 6.765625 -11.015625 C 5.410156 -11.015625 4.6875 -10.28125 4.59375 -8.8125 L 1.296875 -8.78125 C 1.347656 -10.21875 1.890625 -11.34375 2.921875 -12.15625 C 3.960938 -12.976562 5.285156 -13.390625 6.890625 -13.390625 C 10.148438 -13.390625 11.894531 -12.109375 12.125 -9.546875 C 12.164062 -8.921875 12.1875 -8.25 12.1875 -7.53125 L 12.1875 -3.3125 C 12.1875 -2.3125 12.269531 -1.207031 12.4375 0 Z M 6.296875 -2.03125 C 7.023438 -2.03125 7.628906 -2.273438 8.109375 -2.765625 C 8.585938 -3.265625 8.828125 -3.945312 8.828125 -4.8125 L 8.828125 -5.859375 C 5.816406 -6.078125 4.3125 -5.367188 4.3125 -3.734375 C 4.3125 -2.597656 4.972656 -2.03125 6.296875 -2.03125 Z M 6.296875 -2.03125 "/></g></g><g style="fill:#271f81;fill-opacity:1;"><g transform="translate(195.546077, 127.762345)"><path style="stroke:none" d="M 8.1875 -13.375 C 8.5625 -13.375 8.882812 -13.335938 9.15625 -13.265625 L 9.15625 -10.546875 C 7.707031 -10.648438 6.640625 -10.34375 5.953125 -9.625 C 5.273438 -8.914062 4.9375 -7.703125 4.9375 -5.984375 L 4.9375 0 L 1.546875 0 L 1.546875 -13.046875 L 4.9375 -13.046875 L 4.9375 -10.671875 L 5.96875 -12.484375 C 6.601562 -13.078125 7.34375 -13.375 8.1875 -13.375 Z M 8.1875 -13.375 "/></g></g><g style="fill:#271f81;fill-opacity:1;"><g transform="translate(203.244157, 127.762345)"><path style="stroke:none" d="M 13.390625 -6.796875 C 13.390625 -6.316406 13.375 -5.929688 13.34375 -5.640625 L 4.078125 -5.640625 C 4.265625 -3.234375 5.269531 -2.03125 7.09375 -2.03125 C 7.820312 -2.03125 8.425781 -2.226562 8.90625 -2.625 C 9.394531 -3.019531 9.695312 -3.5625 9.8125 -4.25 L 13.203125 -4.25 C 12.867188 -2.757812 12.148438 -1.617188 11.046875 -0.828125 C 9.941406 -0.046875 8.597656 0.34375 7.015625 0.34375 C 5.128906 0.34375 3.597656 -0.238281 2.421875 -1.40625 C 1.242188 -2.582031 0.65625 -4.269531 0.65625 -6.46875 C 0.65625 -8.5 1.265625 -10.160156 2.484375 -11.453125 C 3.703125 -12.742188 5.300781 -13.390625 7.28125 -13.390625 C 9.195312 -13.390625 10.691406 -12.757812 11.765625 -11.5 C 12.847656 -10.238281 13.390625 -8.671875 13.390625 -6.796875 Z M 7.140625 -11.015625 C 5.453125 -11.015625 4.460938 -9.957031 4.171875 -7.84375 L 9.90625 -7.84375 C 9.675781 -9.957031 8.753906 -11.015625 7.140625 -11.015625 Z M 7.140625 -11.015625 "/></g></g><g style="fill:#271f81;fill-opacity:1;"><g transform="translate(215.797161, 127.762345)"><path style="stroke:none" d="M 1.515625 -3.203125 C 1.890625 -3.585938 2.378906 -3.78125 2.984375 -3.78125 C 3.597656 -3.78125 4.09375 -3.585938 4.46875 -3.203125 C 4.851562 -2.816406 5.046875 -2.320312 5.046875 -1.71875 C 5.046875 -1.113281 4.851562 -0.617188 4.46875 -0.234375 C 4.09375 0.148438 3.597656 0.34375 2.984375 0.34375 C 2.378906 0.34375 1.890625 0.148438 1.515625 -0.234375 C 1.140625 -0.617188 0.953125 -1.113281 0.953125 -1.71875 C 0.953125 -2.320312 1.140625 -2.816406 1.515625 -3.203125 Z M 1.515625 -3.203125 "/></g></g><g style="fill:#271f81;fill-opacity:1;"><g transform="translate(220.185054, 127.762345)"><path style="stroke:none" d=""/></g></g><g style="fill:#271f81;fill-opacity:1;"><g transform="translate(223.322444, 127.762345)"><path style="stroke:none" d="M 7.796875 -17.265625 C 9.734375 -17.265625 11.210938 -16.78125 12.234375 -15.8125 C 13.253906 -14.851562 13.863281 -13.566406 14.0625 -11.953125 L 10.59375 -11.953125 C 10.5 -12.828125 10.207031 -13.507812 9.71875 -14 C 9.226562 -14.5 8.546875 -14.75 7.671875 -14.75 C 6.972656 -14.75 6.398438 -14.578125 5.953125 -14.234375 C 5.515625 -13.890625 5.296875 -13.390625 5.296875 -12.734375 C 5.296875 -12.015625 5.5625 -11.445312 6.09375 -11.03125 C 6.625 -10.625 7.5625 -10.265625 8.90625 -9.953125 C 10.75 -9.535156 12.109375 -8.890625 12.984375 -8.015625 C 13.859375 -7.148438 14.296875 -6.03125 14.296875 -4.65625 C 14.296875 -3.125 13.691406 -1.90625 12.484375 -1 C 11.273438 -0.101562 9.796875 0.34375 8.046875 0.34375 C 5.984375 0.34375 4.335938 -0.109375 3.109375 -1.015625 C 1.890625 -1.921875 1.195312 -3.25 1.03125 -5 L 4.484375 -5 C 4.671875 -4.101562 5.082031 -3.410156 5.71875 -2.921875 C 6.351562 -2.429688 7.113281 -2.1875 8 -2.1875 C 8.78125 -2.1875 9.4375 -2.378906 9.96875 -2.765625 C 10.5 -3.160156 10.765625 -3.675781 10.765625 -4.3125 C 10.765625 -5.03125 10.503906 -5.609375 9.984375 -6.046875 C 9.472656 -6.492188 8.609375 -6.863281 7.390625 -7.15625 C 5.484375 -7.613281 4.0625 -8.222656 3.125 -8.984375 C 2.195312 -9.742188 1.734375 -10.851562 1.734375 -12.3125 C 1.734375 -13.820312 2.320312 -15.023438 3.5 -15.921875 C 4.6875 -16.816406 6.117188 -17.265625 7.796875 -17.265625 Z M 7.796875 -17.265625 "/></g></g><g style="fill:#271f81;fill-opacity:1;"><g transform="translate(236.611056, 127.762345)"><path style="stroke:none" d="M 13.90625 -13.046875 L 8.65625 0.484375 C 7.96875 2.234375 7.222656 3.445312 6.421875 4.125 C 5.617188 4.8125 4.550781 5.15625 3.21875 5.15625 C 2.644531 5.15625 2.132812 5.117188 1.6875 5.046875 L 1.6875 2.71875 C 1.914062 2.75 2.253906 2.765625 2.703125 2.765625 C 3.859375 2.765625 4.675781 2.1875 5.15625 1.03125 L 5.328125 0.609375 L 0 -13.046875 L 3.78125 -13.046875 L 7.015625 -2.578125 L 10.203125 -13.046875 Z M 13.90625 -13.046875 "/></g></g><g style="fill:#271f81;fill-opacity:1;"><g transform="translate(248.845294, 127.762345)"><path style="stroke:none" d="M 13.71875 -9.734375 C 13.78125 -9.148438 13.8125 -8.359375 13.8125 -7.359375 L 13.8125 0 L 10.421875 0 L 10.421875 -6.890625 C 10.421875 -7.660156 10.40625 -8.265625 10.375 -8.703125 C 10.257812 -10.242188 9.425781 -11.015625 7.875 -11.015625 C 6.988281 -11.015625 6.273438 -10.597656 5.734375 -9.765625 C 5.203125 -8.941406 4.9375 -7.675781 4.9375 -5.96875 L 4.9375 0 L 1.546875 0 L 1.546875 -13.046875 L 4.9375 -13.046875 L 4.9375 -10.9375 L 5.9375 -12.484375 C 6.789062 -13.085938 7.835938 -13.390625 9.078125 -13.390625 C 10.453125 -13.390625 11.535156 -13.070312 12.328125 -12.4375 C 13.117188 -11.800781 13.582031 -10.898438 13.71875 -9.734375 Z M 13.71875 -9.734375 "/></g></g><g style="fill:#271f81;fill-opacity:1;"><g transform="translate(262.452647, 127.762345)"><path style="stroke:none" d="M 7.1875 -13.390625 C 8.90625 -13.390625 10.296875 -12.921875 11.359375 -11.984375 C 12.421875 -11.046875 13.019531 -9.832031 13.15625 -8.34375 L 9.8125 -8.34375 C 9.519531 -10.125 8.617188 -11.015625 7.109375 -11.015625 C 6.210938 -11.015625 5.5 -10.644531 4.96875 -9.90625 C 4.4375 -9.175781 4.171875 -8.085938 4.171875 -6.640625 C 4.171875 -5.085938 4.429688 -3.929688 4.953125 -3.171875 C 5.472656 -2.410156 6.1875 -2.03125 7.09375 -2.03125 C 7.757812 -2.03125 8.328125 -2.242188 8.796875 -2.671875 C 9.265625 -3.097656 9.578125 -3.710938 9.734375 -4.515625 L 13.125 -4.515625 C 12.84375 -2.941406 12.148438 -1.738281 11.046875 -0.90625 C 9.941406 -0.0703125 8.554688 0.34375 6.890625 0.34375 C 5.046875 0.34375 3.546875 -0.238281 2.390625 -1.40625 C 1.234375 -2.582031 0.65625 -4.253906 0.65625 -6.421875 C 0.65625 -8.585938 1.273438 -10.289062 2.515625 -11.53125 C 3.765625 -12.769531 5.320312 -13.390625 7.1875 -13.390625 Z M 7.1875 -13.390625 "/></g></g><g style="fill:#271f81;fill-opacity:1;"><g transform="translate(274.588807, 127.762345)"><path style="stroke:none" d="M 1.515625 -3.203125 C 1.890625 -3.585938 2.378906 -3.78125 2.984375 -3.78125 C 3.597656 -3.78125 4.09375 -3.585938 4.46875 -3.203125 C 4.851562 -2.816406 5.046875 -2.320312 5.046875 -1.71875 C 5.046875 -1.113281 4.851562 -0.617188 4.46875 -0.234375 C 4.09375 0.148438 3.597656 0.34375 2.984375 0.34375 C 2.378906 0.34375 1.890625 0.148438 1.515625 -0.234375 C 1.140625 -0.617188 0.953125 -1.113281 0.953125 -1.71875 C 0.953125 -2.320312 1.140625 -2.816406 1.515625 -3.203125 Z M 1.515625 -3.203125 "/></g></g><g style="fill:#271f81;fill-opacity:1;"><g transform="translate(278.9767, 127.762345)"><path style="stroke:none" d=""/></g></g><g style="fill:#271f81;fill-opacity:1;"><g transform="translate(282.11409, 127.762345)"><path style="stroke:none" d="M 9.9375 -8.640625 L 16.75 -8.640625 L 16.75 0 L 14.03125 0 L 13.8125 -2.75 L 13.046875 -1.03125 C 12.117188 -0.113281 10.742188 0.34375 8.921875 0.34375 C 6.566406 0.34375 4.695312 -0.4375 3.3125 -2 C 1.9375 -3.5625 1.25 -5.679688 1.25 -8.359375 C 1.25 -11.078125 2.035156 -13.238281 3.609375 -14.84375 C 5.179688 -16.457031 7.175781 -17.265625 9.59375 -17.265625 C 11.800781 -17.265625 13.523438 -16.726562 14.765625 -15.65625 C 16.003906 -14.59375 16.71875 -13.1875 16.90625 -11.4375 L 16.921875 -11.1875 L 13.546875 -11.1875 L 13.5 -11.4375 C 13.050781 -13.644531 11.734375 -14.75 9.546875 -14.75 C 8.148438 -14.75 7.015625 -14.191406 6.140625 -13.078125 C 5.265625 -11.960938 4.828125 -10.457031 4.828125 -8.5625 C 4.828125 -6.519531 5.253906 -4.945312 6.109375 -3.84375 C 6.960938 -2.738281 8.070312 -2.1875 9.4375 -2.1875 C 10.539062 -2.1875 11.453125 -2.519531 12.171875 -3.1875 C 12.898438 -3.851562 13.347656 -4.785156 13.515625 -5.984375 L 9.9375 -5.984375 Z M 9.9375 -8.640625 "/></g></g><g style="fill:#271f81;fill-opacity:1;"><g transform="translate(298.565747, 127.762345)"><path style="stroke:none" d="M 2.453125 -11.484375 C 3.648438 -12.753906 5.3125 -13.390625 7.4375 -13.390625 C 9.5625 -13.390625 11.21875 -12.753906 12.40625 -11.484375 C 13.601562 -10.222656 14.203125 -8.570312 14.203125 -6.53125 C 14.203125 -4.5 13.601562 -2.84375 12.40625 -1.5625 C 11.21875 -0.289062 9.5625 0.34375 7.4375 0.34375 C 5.3125 0.34375 3.648438 -0.289062 2.453125 -1.5625 C 1.253906 -2.84375 0.65625 -4.5 0.65625 -6.53125 C 0.65625 -8.570312 1.253906 -10.222656 2.453125 -11.484375 Z M 5.03125 -3.21875 C 5.613281 -2.425781 6.410156 -2.03125 7.421875 -2.03125 C 8.441406 -2.03125 9.242188 -2.425781 9.828125 -3.21875 C 10.410156 -4.019531 10.703125 -5.125 10.703125 -6.53125 C 10.703125 -7.9375 10.410156 -9.035156 9.828125 -9.828125 C 9.242188 -10.617188 8.441406 -11.015625 7.421875 -11.015625 C 6.410156 -11.015625 5.613281 -10.617188 5.03125 -9.828125 C 4.457031 -9.035156 4.171875 -7.9375 4.171875 -6.53125 C 4.171875 -5.125 4.457031 -4.019531 5.03125 -3.21875 Z M 5.03125 -3.21875 "/></g></g><g style="fill:#271f81;fill-opacity:1;"><g transform="translate(311.805295, 127.762345)"><path style="stroke:none" d="M 1.515625 -3.203125 C 1.890625 -3.585938 2.378906 -3.78125 2.984375 -3.78125 C 3.597656 -3.78125 4.09375 -3.585938 4.46875 -3.203125 C 4.851562 -2.816406 5.046875 -2.320312 5.046875 -1.71875 C 5.046875 -1.113281 4.851562 -0.617188 4.46875 -0.234375 C 4.09375 0.148438 3.597656 0.34375 2.984375 0.34375 C 2.378906 0.34375 1.890625 0.148438 1.515625 -0.234375 C 1.140625 -0.617188 0.953125 -1.113281 0.953125 -1.71875 C 0.953125 -2.320312 1.140625 -2.816406 1.515625 -3.203125 Z M 1.515625 -3.203125 "/></g></g></g></svg>